# xmcd CD database file
#
# Track frame offsets:
#	150
#	14318
#	22969
#	46080
#	59365
#	70752
#	80844
#	95542
#	110181
#	118225
#	126660
#	140331
#	165444
#	170438
#	182132
#
# Disc length: 2604 seconds
#
# Revision: 0
# Processed by: cddbd v1.5.2PL0 Copyright (c) Steve Scherf et al.
# Submitted via: CDex 1.70beta2
#
DISCID=d20a2a0f
DTITLE=Patrola - Country music České Budějovice
DYEAR=1900
DGENRE=Country
TTITLE0=Zklamání
TTITLE1=Splín
TTITLE2=Stopa
TTITLE3=Texas
TTITLE4=Kde může být
TTITLE5=Naposled Ti zamávám
TTITLE6=Jsem
TTITLE7=Hvězda štěstí
TTITLE8=Mám Tě dost
TTITLE9=Bráníš se tělem
TTITLE10=Mojí ženu si jinej vzal
TTITLE11=Baladea o Margaretě
TTITLE12=To mi věř
TTITLE13=Patrola
TTITLE14=nevim
EXTD=
EXTT0=
EXTT1=
EXTT2=
EXTT3=
EXTT4=
EXTT5=
EXTT6=
EXTT7=
EXTT8=
EXTT9=
EXTT10=
EXTT11=
EXTT12=
EXTT13=
EXTT14=
PLAYORDER=
